<svg width="184.95" height="21.33" viewBox="0 0 184.95 21.33" xmlns="http://www.w3.org/2000/svg"><g id="svgGroup" stroke-linecap="round" fill-rule="evenodd" font-size="9pt" stroke="#000" stroke-width="0.25mm" fill="black" style="stroke:#000;stroke-width:0.25mm;fill:black"><path d="M 165.84 21 L 161.28 21 L 161.28 0 L 165.3 0 L 174.24 14.82 L 172.11 14.82 L 180.9 0 L 184.92 0 L 184.95 21 L 180.39 21 L 180.36 6.99 L 181.23 6.99 L 174.18 18.78 L 172.02 18.78 L 164.82 6.99 L 165.84 6.99 L 165.84 21 Z M 28.95 21 L 24.36 21 L 24.36 0 L 29.19 0 L 29.19 13.68 L 39.21 0 L 43.77 0 L 43.77 21 L 38.97 21 L 38.97 7.35 L 28.95 21 Z M 77.4 21 L 72.81 21 L 72.81 0 L 77.64 0 L 77.64 13.68 L 87.66 0 L 92.22 0 L 92.22 21 L 87.42 21 L 87.42 7.35 L 77.4 21 Z M 141.24 21 L 136.65 21 L 136.65 0 L 141.48 0 L 141.48 13.68 L 151.5 0 L 156.06 0 L 156.06 21 L 151.26 21 L 151.26 7.35 L 141.24 21 Z M 4.83 21 L 0 21 L 0 0 L 19.14 0 L 19.14 21 L 14.31 21 L 14.31 2.85 L 15.42 3.96 L 3.72 3.96 L 4.83 2.85 L 4.83 21 Z M 46.65 21 L 46.95 16.89 A 3.102 3.102 0 0 0 47.487 16.993 Q 47.631 17.008 47.778 17.01 A 3.36 3.36 0 0 0 47.82 17.01 Q 49.05 17.01 49.74 16.005 A 3.779 3.779 0 0 0 49.835 15.859 Q 50.451 14.867 50.73 13.11 A 22.688 22.688 0 0 0 50.764 12.886 Q 51.023 11.143 51.112 8.745 A 60.438 60.438 0 0 0 51.12 8.52 L 51.42 0 L 67.56 0 L 67.56 21 L 62.76 21 L 62.76 2.85 L 63.87 3.96 L 54.6 3.96 L 55.59 2.79 L 55.41 8.34 A 71.995 71.995 0 0 1 55.398 8.724 Q 55.299 11.58 54.99 13.83 Q 54.66 16.23 53.97 17.91 Q 53.28 19.59 52.08 20.46 Q 50.905 21.312 49.126 21.33 A 7.619 7.619 0 0 1 49.05 21.33 Q 48.607 21.33 48.133 21.269 A 8.311 8.311 0 0 1 47.925 21.24 A 16.75 16.75 0 0 1 47.777 21.217 Q 47.254 21.131 46.65 21 Z M 120.09 21 L 115.23 21 L 115.23 0 L 124.32 0 Q 126.963 0 128.921 0.804 A 8.79 8.79 0 0 1 129.18 0.915 Q 131.22 1.83 132.33 3.54 Q 133.378 5.154 133.437 7.357 A 9.89 9.89 0 0 1 133.44 7.62 Q 133.44 9.96 132.33 11.67 A 6.753 6.753 0 0 1 131.96 12.185 Q 130.987 13.415 129.455 14.166 A 8.829 8.829 0 0 1 129.18 14.295 Q 127.235 15.167 124.581 15.208 A 17.05 17.05 0 0 1 124.32 15.21 L 117.93 15.21 L 120.09 13.02 L 120.09 21 Z M 102.27 21 L 97.44 21 L 97.44 0 L 112.26 0 L 112.23 3.96 L 101.13 3.96 L 102.24 2.85 L 102.27 21 Z M 120.09 1.65 L 120.09 13.56 L 117.93 11.25 L 124.05 11.25 Q 126.188 11.25 127.296 10.384 A 2.965 2.965 0 0 0 127.41 10.29 Q 128.52 9.33 128.52 7.62 A 5.246 5.246 0 0 0 128.516 7.419 Q 128.455 5.824 127.41 4.92 A 3.004 3.004 0 0 0 127.192 4.748 Q 126.137 3.995 124.227 3.962 A 10.232 10.232 0 0 0 124.05 3.96 L 117.93 3.96 L 120.09 1.65 Z" vector-effect="non-scaling-stroke"/></g></svg>