<?xml version="1.0" encoding="utf-8"?>
<!-- Generator: Adobe Illustrator 21.1.0, SVG Export Plug-In . SVG Version: 6.00 Build 0)  -->
<svg version="1.1" id="Icons" xmlns="http://www.w3.org/2000/svg" xmlns:xlink="http://www.w3.org/1999/xlink" x="0px" y="0px"
	 viewBox="0 0 48 48" style="enable-background:new 0 0 48 48;" xml:space="preserve">
<style type="text/css">
	.st0{fill:#724F3D;}
	.st1{fill:#A86C4D;}
	.st2{fill:none;stroke:#45413C;stroke-linecap:round;stroke-linejoin:round;stroke-miterlimit:10;}
	.st3{fill:#FF87AF;}
	.st4{fill:#FF6196;}
	.st5{fill:#FFE500;stroke:#45413C;stroke-linecap:round;stroke-linejoin:round;stroke-miterlimit:10;}
	.st6{fill:#45413C;stroke:#45413C;stroke-linecap:round;stroke-linejoin:round;stroke-miterlimit:10;}
	.st7{fill:#FF6242;}
	.st8{fill:#FFA694;}
	.st9{fill:#FFAA54;}
	.st10{fill:#00B8F0;}
	.st11{fill:#009FD9;}
	.st12{fill:#FFE500;}
	.st13{fill:#EBCB00;}
	.st14{fill:#9CEB60;}
	.st15{fill:#6DD627;}
	.st16{fill:#724F3D;stroke:#45413C;stroke-linecap:round;stroke-linejoin:round;stroke-miterlimit:10;}
	.st17{fill:#BF8DF2;}
	.st18{fill:#9F5AE5;}
	.st19{fill:#00DFEB;}
	.st20{fill:#00C9D4;}
	.st21{fill:#FF866E;}
	.st22{fill:#00F5BC;}
	.st23{fill:#00DBA8;}
	.st24{fill:#FF8A14;}
	.st25{fill:#DE926A;}
	.st26{fill:#FFCEBF;stroke:#45413C;stroke-linecap:round;stroke-linejoin:round;stroke-miterlimit:10;}
	.st27{fill:#FFB59E;}
	.st28{fill:#FFCEBF;}
	.st29{fill:#A86C4D;stroke:#45413C;stroke-linecap:round;stroke-linejoin:round;stroke-miterlimit:10;}
	.st30{fill:#ADC4D9;stroke:#45413C;stroke-linecap:round;stroke-linejoin:round;stroke-miterlimit:10;}
	.st31{fill:#FFF48C;}
	.st32{fill:#C0DCEB;stroke:#45413C;stroke-linecap:round;stroke-linejoin:round;stroke-miterlimit:10;}
	.st33{fill:#4ACFFF;}
	.st34{fill:#45413C;}
	.st35{fill:#FFDCD1;}
	.st36{opacity:0.15;fill:#45413C;}
	.st37{fill:#FFB59E;stroke:#45413C;stroke-linecap:round;stroke-linejoin:round;stroke-miterlimit:10;}
	.st38{fill:#00DFEB;stroke:#45413C;stroke-linecap:round;stroke-linejoin:round;stroke-miterlimit:10;}
	.st39{fill:#F0F0F0;stroke:#45413C;stroke-linecap:round;stroke-linejoin:round;stroke-miterlimit:10;}
	.st40{fill:#E0366F;}
	.st41{fill:#FFE8E0;}
	.st42{fill:#EBCB00;stroke:#45413C;stroke-linecap:round;stroke-linejoin:round;stroke-miterlimit:10;}
	.st43{fill:#FFDA8F;}
	.st44{fill:#FFBE3D;}
	.st45{fill:#FFE9BD;}
	.st46{fill:#FFFFFF;}
	.st47{fill:#E0E0E0;}
	.st48{fill:#656769;}
	.st49{fill:#525252;}
	.st50{fill:#87898C;}
	.st51{fill:#656769;stroke:#45413C;stroke-linecap:round;stroke-linejoin:round;stroke-miterlimit:10;}
	.st52{fill:#B89558;}
	.st53{fill:#947746;}
	.st54{fill:#525252;stroke:#45413C;stroke-linecap:round;stroke-linejoin:round;stroke-miterlimit:10;}
	.st55{fill:#FFFFFF;stroke:#45413C;stroke-linecap:round;stroke-linejoin:round;stroke-miterlimit:10;}
	.st56{fill:#A6FBFF;stroke:#45413C;stroke-linecap:round;stroke-linejoin:round;stroke-miterlimit:10;}
</style>
<g>
	<ellipse id="XMLID_10379_" class="st36" cx="20.9" cy="42.5" rx="13.5" ry="1.5"/>
	<g>
		<g>
			<path id="XMLID_10208_" class="st26" d="M24.6,22.9c1,2.3,0,5-2.3,6.1L7,35.9v-6.5c0-0.4,0.2-0.7,0.6-0.9L22,21.9
				C23,21.5,24.1,21.9,24.6,22.9z"/>
			<g>
				<path class="st4" d="M19.4,26.7c-0.4,0.2-0.8,0-1-0.4l-1-2.3l7.5-3.4c0.5-0.2,1.1,0,1.3,0.5c0.5,1.1,0,2.5-1.1,3L19.4,26.7z"/>
				<path class="st3" d="M24.9,22.1c0.5-0.2,1.1,0,1.3,0.5c0,0.1,0,0.1,0.1,0.2c0.2-0.5,0.2-1.1-0.1-1.7c-0.2-0.5-0.8-0.7-1.3-0.5
					L17.4,24l0.6,1.3L24.9,22.1z"/>
				<path class="st2" d="M19.4,26.7c-0.4,0.2-0.8,0-1-0.4l-1-2.3l7.5-3.4c0.5-0.2,1.1,0,1.3,0.5c0.5,1.1,0,2.5-1.1,3L19.4,26.7z"/>
			</g>
		</g>
		<g>
			<path class="st28" d="M7,39.4l18.8-8.6c2.3-1,3.3-3.8,2.3-6.1c-0.4-1-1.6-1.4-2.5-1L7,32.3L7,39.4z"/>
			<path class="st27" d="M28.4,25.8c-0.4,1.2-1.2,2.3-2.5,2.9L7,37.3l0,2.2l18.8-8.6C27.8,30,28.8,27.8,28.4,25.8z"/>
			<path class="st2" d="M7,39.4l18.8-8.6c2.3-1,3.3-3.8,2.3-6.1c-0.4-1-1.6-1.4-2.5-1L7,32.3L7,39.4z"/>
			<g>
				<path class="st4" d="M22.9,28.6c-0.4,0.2-0.8,0-1-0.4l-1-2.3l7.5-3.4c0.5-0.2,1.1,0,1.3,0.5c0.5,1.1,0,2.5-1.1,3L22.9,28.6z"/>
				<path class="st3" d="M28.5,24.1c0.5-0.2,1.1,0,1.3,0.5c0,0.1,0,0.1,0.1,0.2c0.2-0.5,0.2-1.1-0.1-1.7c-0.2-0.5-0.8-0.7-1.3-0.5
					L20.9,26l0.6,1.3L28.5,24.1z"/>
				<path class="st2" d="M22.9,28.6c-0.4,0.2-0.8,0-1-0.4l-1-2.3l7.5-3.4c0.5-0.2,1.1,0,1.3,0.5c0.5,1.1,0,2.5-1.1,3L22.9,28.6z"/>
			</g>
		</g>
		<g>
			<path class="st28" d="M7,41.6c0,0.3,0.2,0.6,0.4,0.8c0.3,0.2,0.6,0.2,0.9,0.2l17.5-5.4c2.4-0.7,3.8-3.3,3-5.7
				c-0.3-1-1.4-1.6-2.4-1.3L7,36.2l0,0L7,41.6z"/>
			<path class="st27" d="M26.2,35L7,40.9l0,0.7c0,0.3,0.2,0.6,0.4,0.8c0.3,0.2,0.6,0.2,0.9,0.2l17.5-5.4c2.1-0.6,3.4-2.6,3.2-4.7
				C28.5,33.6,27.5,34.6,26.2,35z"/>
			<path class="st2" d="M7,41.6c0,0.3,0.2,0.6,0.4,0.8c0.3,0.2,0.6,0.2,0.9,0.2l17.5-5.4c2.4-0.7,3.8-3.3,3-5.7
				c-0.3-1-1.4-1.6-2.4-1.3L7,36.2l0,0L7,41.6z"/>
			<g>
				<path class="st4" d="M23.3,34.5c-0.4,0.1-0.8-0.1-0.9-0.5l-0.7-2.4l7.9-2.5c0.5-0.2,1.1,0.1,1.3,0.7c0.4,1.2-0.3,2.5-1.5,2.8
					L23.3,34.5z"/>
				<path class="st3" d="M29.3,30.7c0.5-0.2,1.1,0.1,1.3,0.7c0,0.1,0,0.1,0,0.2c0.3-0.5,0.3-1.1,0.2-1.7c-0.2-0.5-0.7-0.8-1.3-0.7
					l-7.9,2.5L22,33L29.3,30.7z"/>
				<path class="st2" d="M23.3,34.5c-0.4,0.1-0.8-0.1-0.9-0.5l-0.7-2.4l7.9-2.5c0.5-0.2,1.1,0.1,1.3,0.7c0.4,1.2-0.3,2.5-1.5,2.8
					L23.3,34.5z"/>
			</g>
		</g>
	</g>
	<g>
		<path id="XMLID_10207_" class="st4" d="M37.9,12.7l-4.2-2c-0.2-0.1-0.4-0.4-0.2-0.7l2.6-5.3c0.5-1,1.7-1.4,2.7-0.9l1.5,0.7
			c1,0.5,1.4,1.7,0.9,2.7l-2.6,5.3C38.5,12.7,38.2,12.8,37.9,12.7z"/>
		<path id="XMLID_10206_" class="st3" d="M33.8,10.7l0.6,0.3l1.7-3.6c0.5-1,1.7-1.4,2.7-0.9l1.5,0.7c0.3,0.1,0.5,0.3,0.7,0.6
			l0.2-0.5c0.5-1,0.1-2.2-0.9-2.7l-1.5-0.7c-1-0.5-2.2-0.1-2.7,0.9L33.5,10C33.4,10.3,33.5,10.6,33.8,10.7z"/>
		<path id="XMLID_10205_" class="st2" d="M37.9,12.7l-4.2-2c-0.2-0.1-0.4-0.4-0.2-0.7l2.6-5.3c0.5-1,1.7-1.4,2.7-0.9l1.5,0.7
			c1,0.5,1.4,1.7,0.9,2.7l-2.6,5.3C38.5,12.7,38.2,12.8,37.9,12.7z"/>
		
			<rect id="XMLID_10204_" x="33" y="11.3" transform="matrix(0.9008 0.4343 -0.4343 0.9008 10.1583 -13.195)" class="st39" width="1.9" height="8.8"/>
		<path id="XMLID_10203_" class="st4" d="M33,20.5c-0.6,1.5-2.2,3-5.4,2.3c1.5-1.1,2.1-2.5,2.6-3.6c0.4-0.7,1.3-1.1,2-0.7
			C33.1,18.9,33.4,19.8,33,20.5z"/>
		<path id="XMLID_10202_" class="st40" d="M29,21.5c-0.3,0.5-0.8,0.9-1.3,1.3c3.2,0.7,4.7-0.9,5.4-2.3c0.2-0.5,0.2-1,0-1.4
			C32.4,20.3,31.2,21.6,29,21.5z"/>
		<path id="XMLID_10201_" class="st2" d="M33,20.5c-0.6,1.5-2.2,3-5.4,2.3c1.5-1.1,2.1-2.5,2.6-3.6c0.4-0.7,1.3-1.1,2-0.7
			C33.1,18.9,33.4,19.8,33,20.5z"/>
	</g>
</g>
</svg>
